Patient4_TMGait_0pt7_02_left_11_EMG.mot
version=1
nRows=23
nColumns=33
inDegrees=no
endheader
time	1LAddLong	2LGlutMax	3LGlutMed	4LIliopsoas	5LSemiMemb	6LBicFemLong	7LRecFem	8LVastMed	9LVastLat	10LGasMed	11LTibAnt	12lTibPost	13LPeroneusLong	14LSol	15LExtDigLong	16LFlexDigLong	17RAddLong	18RGlutMax	19RGlutMed	20RIliopsoas	21RSemiMemb	22RBicFemLong	23RRecFem	24RVastMed	25RVastLat	26RGasMed	27RTibAnt	28RTibPost	29RPeroneusLong	30RSol	31RExtDigLong	32RFlexDigLong
13.443	0.005646	0.38315	0.028687	0.008698	-0.014038	0.022736	-0.089874	0.005798	0.066223	-0.045624	-0.004425	0.009155	0.050964	-0.11597	0.11566	-0.006104	0.012512	-0.11124	1.1916	-0.08667	0.009155	-0.048065	0.029144	0.052032	0.15427	0.021973	0.30838	0.16419	0.93307	0.8696	-0.002594	-0.01297
13.444	0.016479	0.38284	0.023346	0.017242	-0.022736	-0.016022	-0.099335	0.003204	0.056458	-0.057678	-0.068054	0.014191	0.034332	-0.076752	-0.002747	-0.63522	-0.001526	-0.084686	0.5751	-0.28351	0.1088	-0.035553	0.097656	0.077667	0.14358	0.021057	0.4483	0.050201	-0.35355	1.1584	-0.001221	-0.000458
13.445	0.019073	0.34454	-0.018158	0.005646	-0.032043	-0.021973	-0.093842	0.006104	0.045929	-0.06073	-0.062408	-0.00473	0.016785	-0.061035	-0.19959	-0.006714	-0.019226	-0.085907	0.30762	-0.21576	0.11978	-0.03952	0.11108	-0.097961	0.045319	0.023956	0.15442	-0.011749	0.18768	0.58243	-0.00824	-0.001831
13.446	0.009766	0.30807	0.022278	-0.013428	0.075836	-0.049896	-0.10147	0.005035	0.040588	-0.028381	-0.029907	0.00885	0.009003	-0.021667	-0.11246	0.73563	-0.018921	-0.16647	-0.32944	0.023804	0.077057	-0.031586	0.028687	-0.073547	0.061188	0.019684	-0.04303	-0.027771	1.1102	0.078125	-0.001678	-0.003052
13.447	0.010223	0.25162	0.033722	0.001373	0.063477	-0.0177	-0.080109	0.004272	0.036926	-0.053711	0.052948	-0.006104	0.028381	-0.037537	-0.047913	-0.24521	-0.003052	-0.17273	0.011139	0.1149	0.008698	0.000305	-0.000916	-0.066986	0.052032	0.005493	0	-0.066071	-0.79086	0.005951	-0.004578	0.000916
13.448	0.011597	0.22964	0.008392	0.018616	0.042267	-0.008545	-0.096436	0.000153	0.032196	-0.004272	0.13886	0.007324	0.014496	-0.026093	-0.009766	-0.10803	0.002441	-0.14908	-0.12451	0.2977	-0.032196	-0.004883	0.07431	-0.044098	0.029602	0.001373	-0.027161	-0.07843	-1.0831	-0.20065	-0.009155	-0.00885
13.449	0.009766	0.22308	-0.000305	0.022125	0.030975	-0.002747	-0.10315	0.007935	0.026093	-0.022278	0.099945	0.007935	0.021362	-0.013123	0.009918	0.47134	0.004425	-0.16083	-0.4773	0.33341	-0.049744	0.004272	0.10284	-0.022888	-0.017395	-0.005798	-0.13245	-0.011749	-0.83725	-0.3215	-0.001984	-0.007324
13.45	0.018921	0.19959	-0.025482	0.024719	0.021667	0.036621	-0.095062	0.009613	0.021667	-0.045319	-0.062408	-0.000458	0.079041	-0.024261	0.039063	0.19073	0.020905	-0.087738	-0.0383	0.046234	-0.079651	0.017853	0.14114	-0.090637	-0.061951	-0.010223	-0.15732	0.011139	-0.2713	-0.20126	-0.002747	-0.012207
13.451	0.020142	0.1506	-0.026245	0.027008	0.024872	0.017853	-0.092621	0.006714	0.019073	-0.028687	-0.060425	-0.000763	0.037842	-0.039063	0.09613	-0.007935	0.014038	-0.057831	1.2167	-0.024719	-0.068207	0.007935	0.083466	-0.052948	-0.069427	0.00824	-0.13245	-0.033569	0.015869	0.15167	-0.001678	-0.011292
13.452	0.013428	0.13565	-0.039978	-0.012207	0.016327	0.017548	-0.081482	0.005493	0.019531	0.003052	0.020905	-0.002747	0.023041	-0.084839	0.026855	0.046692	0.016632	-0.035553	1.9795	-0.17746	-0.099945	-0.005798	0.12131	0.002136	-0.059967	0.00351	-0.039673	-0.053101	-0.40985	0.27008	-0.002594	-0.009918
13.453	0.013885	0.088654	-0.053253	0.004883	-0.002747	-0.006561	-0.075378	0.006409	0.020447	0.011292	0.030975	-0.000153	0.046692	-0.083313	0.00885	0.039673	0.008545	-0.11292	0.86716	-0.059357	-0.12222	-0.023651	0.13504	-0.037079	-0.020752	-0.003052	0.13336	-0.047607	-1.0947	0.40771	-0.003357	-0.014496
13.454	0.01236	0.01297	-0.054474	0.010223	0.007172	-0.005493	-0.090485	0.006561	0.015411	0.009155	0.052338	0.00946	0.062408	-0.10422	0.024567	-0.24933	0.016327	-0.19791	-0.14664	0.1619	-0.077209	-0.03006	0.057831	0.009918	0.10422	-0.005341	0.54016	-0.056152	-1.1325	0.29617	-0.004272	-0.015106
13.455	0.011597	-0.000763	-0.079956	0.012207	0.007172	-0.016327	-0.083466	0.004883	0.011902	-0.025482	0.018616	-0.001373	0.059204	-0.099487	0.053711	0.027161	0.035553	-0.1828	-0.26779	0.35385	0.087585	-0.053101	0.06897	0.05127	0.041962	-0.002747	0.45654	-0.14175	-0.53574	0.13092	-0.002747	-0.014191
13.456	0.011749	-0.020142	-0.10117	-0.005035	0.011597	0	-0.074615	0.004578	0.022736	-0.02533	-0.01236	0.003967	0.049591	-0.020447	-0.029144	0.12116	0.023804	-0.17868	-0.51224	0.37399	0.13733	-0.049286	0.11215	0.043182	-0.066071	0.045319	0.56992	-0.21698	-0.52414	-0.13641	-0.001831	-0.008392
13.457	0.009003	-0.029907	-0.14282	0.022736	0.005341	0.019531	-0.081635	0.001831	0.024719	-0.044403	-0.010223	-0.000458	0.052948	-0.062408	0.22644	0.059662	0.006866	-0.1503	-0.84106	0.17761	0.10559	0.036316	0.1181	0.043182	-0.10498	0.054016	0.5072	0.16144	0.23438	-0.30319	-0.002441	-0.008698
13.458	0.003967	-0.041351	-0.20966	0.017395	-0.011444	0.036926	-0.074768	0.011444	0.018158	-0.01358	-0.017395	-0.001373	0.019836	-0.04776	0.050201	0.034943	-0.010071	-0.20264	-1.2582	0.033875	0.10376	0.062408	0.1503	0.08255	-0.068207	0.056458	0.014648	0.033569	0.2829	-0.28183	0.002441	-0.015259
13.459	-0.000153	-0.043945	-0.14297	0.009766	-0.001221	0.022278	-0.068512	0.00824	0.018921	0.003204	-0.003204	0.002289	0.035858	-0.039673	-0.038147	0.001221	-0.028687	-0.14404	-0.49744	-0.082245	-0.24155	0.021667	0.14435	0.10651	-0.087891	0.075531	-0.26825	-0.018005	0.13367	-0.053558	-0.002289	-0.006104
13.46	-0.001373	-0.037537	-0.024872	0.007935	-0.006256	0.026855	-0.103	0.011292	0.021667	-0.001831	0.029144	-0.001678	0.04425	-0.20523	-0.11993	-0.008698	-0.049133	-0.13351	-0.14694	-0.081787	0.02533	-0.086365	0.17975	0.13672	-0.054626	0.091705	-0.4332	-0.032043	-0.14664	0.26825	0	0.004425
13.461	0.001984	-0.05249	0.13321	0.001984	0.002594	0.011902	-0.092468	0.004578	0.028992	-0.008392	0.054169	0.004272	0.028381	-0.23499	-0.08606	-0.010376	-0.014038	-0.12665	0.30151	-0.077515	0.29327	-0.19379	0.14389	0.070496	-0.053253	0.087585	-0.63385	-0.13199	-0.16342	-0.093231	-0.000458	-0.00061
13.462	0.006409	-0.11307	0.19547	-0.009308	0.012512	0.00946	-0.11154	0.007935	0.025635	-0.021362	0.045929	0.002899	0.039978	-0.16586	-0.052643	-0.007324	0.01358	-0.17731	0.46646	-0.086212	0.10544	-0.098572	0.027466	0.09491	0.029755	0.04715	-0.39307	-0.51041	-0.20416	-0.5217	-0.007324	0.006104
13.463	0.000153	-0.13184	0.20386	0.011444	0.019836	0.039978	-0.094299	0.009613	0.044556	-0.01709	0.028839	-0.010986	0.027008	-0.062561	-0.07431	-0.017242	-0.023651	-0.19852	0.62637	-0.084686	-0.39429	0.1181	0.00473	0.19806	0.046844	-0.023804	-0.037537	0.29511	-0.21835	-0.68115	-0.001526	-0.003967
13.464	-0.000153	-0.14816	0.1471	0.014191	0.041809	0.059052	-0.087585	0.005188	0.042419	-0.013123	-0.054474	0.011749	-0.00946	-0.016785	-0.10239	-0.016632	-0.014648	-0.24429	0.007477	-0.09079	-0.551	0.22507	-0.1387	0.085144	-0.016785	-0.072174	-0.042114	0.12863	0.57587	-0.91614	-0.002594	-0.018005
13.465	0.007172	-0.13702	0.10208	0.005493	0.010071	0.055084	-0.10605	0.011749	0.050507	0.001068	-0.044098	-0.000153	-0.009766	-0.014648	-0.074615	-0.01358	0.020599	-0.23651	-0.022125	-0.14221	-0.26154	0.10437	-0.27435	0.10391	0.050049	-0.12741	-0.13001	-0.05661	0.53024	-0.097351	-0.00473	-0.004272
